<svg width="129" height="59" viewBox="0 0 129 59" fill="none" xmlns="http://www.w3.org/2000/svg">
<path d="M66.1049 5.50709C65.9478 3.06667 64.0161 0.828851 61.5485 0.211839C58.8775 -0.451218 56.1973 0.626251 54.774 3.02983C52.7037 6.5293 50.6797 10.0564 48.6371 13.5743C47.7869 15.0477 46.8996 16.512 45.3192 17.3132C43.1935 18.3907 41.0955 18.492 39.1084 16.9448C39.016 16.8712 38.8866 16.8251 38.7757 16.7699C38.7295 16.8251 38.6833 16.8712 38.6371 16.9264C39.6537 18.5196 40.5872 20.1772 41.7055 21.6967C43.9976 24.8278 48.6556 24.7726 51.114 21.4481C52.7869 19.1919 54.0808 16.6501 55.5503 14.2373C56.0863 13.3625 56.5947 12.4692 57.1492 11.5391C58.8867 12.285 60.5873 12.46 62.3248 11.7601C64.8757 10.7379 66.299 8.38034 66.1049 5.50709ZM38.1288 0.00923862C34.7461 0.036866 32.0289 2.7904 32.0474 6.17015C32.0659 9.54069 34.8108 12.2205 38.2397 12.1929C41.5669 12.1745 44.2933 9.42097 44.2841 6.10568C44.2656 2.74435 41.4744 -0.0183888 38.1288 0.00923862Z" fill="#A5A5A5"/>
<path d="M38.6463 16.9264C39.6629 18.5196 40.5964 20.1773 41.7147 21.6968C44.0068 24.8279 48.6648 24.7726 51.1233 21.4481C52.7961 19.1919 54.09 16.6502 55.5503 14.2374C56.0863 13.3533 56.5946 12.4692 57.1492 11.5391C58.8867 12.285 60.5873 12.46 62.3248 11.7601C64.8756 10.7287 66.2989 8.37116 66.1049 5.49791C65.9477 3.05749 64.0161 0.819677 61.5485 0.202665C58.8775 -0.460393 56.1972 0.617076 54.7739 3.02066C52.7037 6.52013 50.6796 10.0472 48.6371 13.5651C47.7868 15.0386 46.8996 16.5028 45.3192 17.304C43.1935 18.3815 41.0955 18.4828 39.1084 16.9357C39.016 16.862 38.8866 16.8159 38.7757 16.7607L38.6463 16.9264Z" fill="#A5A5A5"/>
<path d="M96.9368 12.6257C96.6226 18.8143 91.6133 23.7503 85.3933 23.9898C84.2658 24.0358 83.7297 23.9253 83.2029 23.6767C82.1123 23.1702 81.299 22.194 80.9663 21.0429L79.4968 15.9686C80.8092 17.746 82.9719 18.8511 85.3748 18.6945C88.7205 18.4735 91.4192 15.7844 91.6318 12.4415C91.8813 8.54607 88.776 5.30446 84.922 5.30446H84.8942C83.4802 5.30446 82.1863 6.05961 81.4839 7.27521C80.4118 9.14467 79.3304 11.0141 78.2583 12.8836C77.1493 14.8083 76.031 16.733 74.9127 18.6577C74.6908 19.0445 74.469 19.4221 74.238 19.8088C73.6927 20.7482 72.9718 21.6322 72.1677 22.369C69.9034 24.4687 66.1418 24.57 64.3026 22.415C62.8331 20.6837 61.7056 18.6577 60.4209 16.7698C64.395 19.597 68.249 17.5434 69.9588 14.5873C71.0494 12.7086 72.1862 10.8576 73.2121 8.94207C73.2583 8.85918 73.3045 8.76709 73.3415 8.68421C73.4616 8.2698 73.6003 7.8646 73.7666 7.46861C75.4395 3.36133 79.3397 0.395993 83.9608 0.0368365C84.275 0.00920913 84.5892 0 84.9127 0C91.7704 0.0184183 97.288 5.72808 96.9368 12.6257Z" fill="#A5A5A5"/>
<path d="M38.2397 12.2021C41.5669 12.1837 44.2933 9.43018 44.2841 6.11489C44.2656 2.74435 41.4744 -0.0183888 38.1288 0.00923862C34.7461 0.036866 32.0289 2.7904 32.0474 6.17015C32.0659 9.54069 34.8108 12.2205 38.2397 12.2021Z" fill="#A5A5A5"/>
<path d="M4.74 53L0.3 38.2H3.68L5.62 44.62C5.88 45.5 6.12 46.38 6.36 47.84C6.6 46.38 6.84 45.54 7.1 44.62L8.92 38.2H12.54L14.28 44.62C14.52 45.52 14.76 46.42 15.02 47.84C15.32 46.34 15.54 45.52 15.8 44.66L17.78 38.2H21.08L16.56 53H13.4L10.7 43.28L7.92 53H4.74ZM23.9652 53.26C21.8452 53.26 20.5252 52.02 20.5252 50.06C20.5252 48.22 21.8252 47.08 24.2252 46.9L27.0252 46.68V46.52C27.0252 45.54 26.4252 45.02 25.3252 45.02C24.0252 45.02 23.3252 45.52 23.3252 46.42H20.7652C20.7652 44.16 22.6252 42.68 25.4852 42.68C28.3852 42.68 30.0252 44.3 30.0252 47.16V53H27.3052L27.1052 51.68C26.7852 52.6 25.4652 53.26 23.9652 53.26ZM25.0452 50.98C26.2252 50.98 27.0452 50.4 27.0452 49.26V48.72L25.4852 48.86C24.1452 48.98 23.6652 49.28 23.6652 49.92C23.6652 50.64 24.1052 50.98 25.0452 50.98ZM31.5142 49.84H34.4342C34.4742 50.54 34.9942 50.96 35.9342 50.96C36.8942 50.96 37.3342 50.62 37.3342 50.1C37.3342 49.8 37.1742 49.48 36.4342 49.32L34.5942 48.92C32.7542 48.52 31.8542 47.72 31.8542 45.96C31.8542 43.88 33.6342 42.68 36.0342 42.68C38.3542 42.68 39.9742 44.04 39.9742 46.06H37.0542C37.0542 45.38 36.6342 44.92 35.8942 44.92C35.1942 44.92 34.7542 45.28 34.7542 45.82C34.7542 46.28 35.1342 46.54 35.8342 46.7L37.6942 47.1C39.3342 47.46 40.2342 48.22 40.2342 49.82C40.2342 51.96 38.4142 53.26 35.8142 53.26C33.1742 53.26 31.5142 51.86 31.5142 49.84ZM43.3636 41.44C42.3836 41.44 41.6036 40.66 41.6036 39.68C41.6036 38.7 42.3836 37.94 43.3636 37.94C44.3236 37.94 45.1036 38.7 45.1036 39.68C45.1036 40.66 44.3236 41.44 43.3636 41.44ZM41.8436 53V43H44.9236V53H41.8436ZM53.2688 43H56.3488V53H53.4488L53.2488 51.88C52.6288 52.7 51.3888 53.26 50.1888 53.26C47.9088 53.26 46.5088 51.74 46.5088 49.28V43H49.5888V48.16C49.5888 49.8 50.1488 50.52 51.4088 50.52C52.7288 50.52 53.2688 49.84 53.2688 48.2V43ZM66.353 53H62.973L68.253 38.2H71.413L76.673 53H73.233L72.193 49.88H67.413L66.353 53ZM69.413 44L68.353 47.16H71.273L70.213 44C70.053 43.5 69.873 42.92 69.813 42.56C69.753 42.9 69.593 43.46 69.413 44ZM76.7077 57.8V55.22H78.4077C79.4477 55.22 79.8877 54.9 80.2877 53.82L80.4677 53.34L76.4477 43H79.7477L81.9277 49.42L84.3477 43H87.5477L82.4677 55.18C81.6277 57.22 80.5077 58.08 78.7477 58.08C78.0077 58.08 77.3077 57.98 76.7077 57.8ZM87.7684 47.98C87.7684 44.82 90.0884 42.7 93.2884 42.7C96.4684 42.7 98.7884 44.82 98.7884 47.98C98.7884 51.14 96.4684 53.24 93.2884 53.24C90.0884 53.24 87.7684 51.14 87.7684 47.98ZM90.8684 47.96C90.8684 49.48 91.8484 50.48 93.2884 50.48C94.7084 50.48 95.6884 49.48 95.6884 47.96C95.6884 46.46 94.7084 45.46 93.2884 45.46C91.8484 45.46 90.8684 46.46 90.8684 47.96ZM100.034 47.98C100.034 44.82 102.354 42.7 105.554 42.7C108.734 42.7 111.054 44.82 111.054 47.98C111.054 51.14 108.734 53.24 105.554 53.24C102.354 53.24 100.034 51.14 100.034 47.98ZM103.134 47.96C103.134 49.48 104.114 50.48 105.554 50.48C106.974 50.48 107.954 49.48 107.954 47.96C107.954 46.46 106.974 45.46 105.554 45.46C104.114 45.46 103.134 46.46 103.134 47.96ZM115.92 53H112.84V37.92H115.92V53ZM121.25 53.26C119.13 53.26 117.81 52.02 117.81 50.06C117.81 48.22 119.11 47.08 121.51 46.9L124.31 46.68V46.52C124.31 45.54 123.71 45.02 122.61 45.02C121.31 45.02 120.61 45.52 120.61 46.42H118.05C118.05 44.16 119.91 42.68 122.77 42.68C125.67 42.68 127.31 44.3 127.31 47.16V53H124.59L124.39 51.68C124.07 52.6 122.75 53.26 121.25 53.26ZM122.33 50.98C123.51 50.98 124.33 50.4 124.33 49.26V48.72L122.77 48.86C121.43 48.98 120.95 49.28 120.95 49.92C120.95 50.64 121.39 50.98 122.33 50.98Z" fill="#A5A5A5"/>
</svg>
