<svg width="202" height="27" viewBox="0 0 202 27" fill="none" xmlns="http://www.w3.org/2000/svg">
<path d="M34.0576 5.50709C33.9005 3.06667 31.9688 0.828851 29.5012 0.211839C26.8302 -0.451218 24.1499 0.626251 22.7267 3.02983C20.6564 6.5293 18.6324 10.0564 16.5898 13.5743C15.7396 15.0477 14.8523 16.512 13.2719 17.3132C11.1462 18.3907 9.0482 18.492 7.06113 16.9448C6.96871 16.8712 6.83932 16.8251 6.72841 16.7699C6.6822 16.8251 6.63599 16.8712 6.58978 16.9264C7.60642 18.5196 8.53988 20.1772 9.65819 21.6967C11.9503 24.8278 16.6083 24.7726 19.0667 21.4481C20.7396 19.1919 22.0335 16.6501 23.503 14.2373C24.039 13.3625 24.5474 12.4692 25.1019 11.5391C26.8394 12.285 28.54 12.46 30.2775 11.7601C32.8284 10.7379 34.2517 8.38034 34.0576 5.50709ZM6.08146 0.00923862C2.69882 0.036866 -0.0183906 2.7904 9.37509e-05 6.17015C0.0185781 9.54069 2.76351 12.2205 6.19236 12.1929C9.51956 12.1745 12.246 9.42097 12.2368 6.10568C12.2183 2.74435 9.42713 -0.0183888 6.08146 0.00923862Z" fill="#D4AF37"/>
<path d="M6.599 16.9264C7.61564 18.5196 8.5491 20.1772 9.66741 21.6967C11.9595 24.8278 16.6175 24.7726 19.076 21.4481C20.7488 19.1918 22.0427 16.6501 23.503 14.2373C24.039 13.3532 24.5473 12.4692 25.1019 11.539C26.8394 12.285 28.54 12.46 30.2775 11.7601C32.8283 10.7286 34.2516 8.3711 34.0576 5.49785C33.9004 3.05743 31.9688 0.819615 29.5012 0.202604C26.8302 -0.460454 24.1499 0.617015 22.7266 3.0206C20.6564 6.52007 18.6323 10.0472 16.5898 13.5651C15.7395 15.0385 14.8523 16.5028 13.2719 17.304C11.1462 18.3814 9.04818 18.4827 7.06111 16.9356C6.96869 16.8619 6.8393 16.8159 6.72839 16.7606L6.599 16.9264Z" fill="#D4AF37"/>
<path d="M64.8895 12.6257C64.5753 18.8143 59.566 23.7503 53.346 23.9898C52.2185 24.0358 51.6824 23.9253 51.1556 23.6767C50.065 23.1702 49.2517 22.194 48.919 21.0429L47.4495 15.9686C48.7619 17.746 50.9246 18.8511 53.3275 18.6945C56.6732 18.4735 59.3719 15.7844 59.5845 12.4415C59.834 8.54607 56.7287 5.30446 52.8747 5.30446H52.8469C51.4329 5.30446 50.139 6.05961 49.4366 7.27521C48.3645 9.14467 47.2831 11.0141 46.211 12.8836C45.102 14.8083 43.9837 16.733 42.8654 18.6577C42.6435 19.0445 42.4217 19.4221 42.1907 19.8088C41.6454 20.7482 40.9245 21.6322 40.1204 22.369C37.8561 24.4687 34.0945 24.57 32.2553 22.415C30.7858 20.6837 29.6583 18.6577 28.3736 16.7698C32.3477 19.597 36.2017 17.5434 37.9115 14.5873C39.0021 12.7086 40.1389 10.8576 41.1648 8.94207C41.211 8.85918 41.2572 8.76709 41.2942 8.68421C41.4143 8.2698 41.553 7.8646 41.7193 7.46861C43.3922 3.36133 47.2924 0.395993 51.9135 0.0368365C52.2277 0.00920913 52.5419 0 52.8654 0C59.7231 0.0184183 65.2407 5.72808 64.8895 12.6257Z" fill="#D4AF37"/>
<path d="M6.19236 12.2021C9.51955 12.1837 12.246 9.43018 12.2368 6.11489C12.2183 2.74435 9.42713 -0.0183888 6.08146 0.00923862C2.69881 0.036866 -0.0183906 2.7904 9.37509e-05 6.17015C0.0185781 9.54069 2.76351 12.2205 6.19236 12.2021Z" fill="#D4AF37"/>
<path d="M77.6455 21L73.2055 6.2H76.5855L78.5255 12.62C78.7855 13.5 79.0255 14.38 79.2655 15.84C79.5055 14.38 79.7455 13.54 80.0055 12.62L81.8255 6.2H85.4455L87.1855 12.62C87.4255 13.52 87.6655 14.42 87.9255 15.84C88.2255 14.34 88.4455 13.52 88.7055 12.66L90.6855 6.2H93.9855L89.4655 21H86.3055L83.6055 11.28L80.8255 21H77.6455ZM96.8706 21.26C94.7506 21.26 93.4306 20.02 93.4306 18.06C93.4306 16.22 94.7306 15.08 97.1306 14.9L99.9306 14.68V14.52C99.9306 13.54 99.3306 13.02 98.2306 13.02C96.9306 13.02 96.2306 13.52 96.2306 14.42H93.6706C93.6706 12.16 95.5306 10.68 98.3906 10.68C101.291 10.68 102.931 12.3 102.931 15.16V21H100.211L100.011 19.68C99.6906 20.6 98.3706 21.26 96.8706 21.26ZM97.9506 18.98C99.1306 18.98 99.9506 18.4 99.9506 17.26V16.72L98.3906 16.86C97.0506 16.98 96.5706 17.28 96.5706 17.92C96.5706 18.64 97.0106 18.98 97.9506 18.98ZM104.42 17.84H107.34C107.38 18.54 107.9 18.96 108.84 18.96C109.8 18.96 110.24 18.62 110.24 18.1C110.24 17.8 110.08 17.48 109.34 17.32L107.5 16.92C105.66 16.52 104.76 15.72 104.76 13.96C104.76 11.88 106.54 10.68 108.94 10.68C111.26 10.68 112.88 12.04 112.88 14.06H109.96C109.96 13.38 109.54 12.92 108.8 12.92C108.1 12.92 107.66 13.28 107.66 13.82C107.66 14.28 108.04 14.54 108.74 14.7L110.6 15.1C112.24 15.46 113.14 16.22 113.14 17.82C113.14 19.96 111.32 21.26 108.72 21.26C106.08 21.26 104.42 19.86 104.42 17.84ZM116.269 9.44C115.289 9.44 114.509 8.66 114.509 7.68C114.509 6.7 115.289 5.94 116.269 5.94C117.229 5.94 118.009 6.7 118.009 7.68C118.009 8.66 117.229 9.44 116.269 9.44ZM114.749 21V11H117.829V21H114.749ZM126.174 11H129.254V21H126.354L126.154 19.88C125.534 20.7 124.294 21.26 123.094 21.26C120.814 21.26 119.414 19.74 119.414 17.28V11H122.494V16.16C122.494 17.8 123.054 18.52 124.314 18.52C125.634 18.52 126.174 17.84 126.174 16.2V11ZM139.258 21H135.878L141.158 6.2H144.318L149.578 21H146.138L145.098 17.88H140.318L139.258 21ZM142.318 12L141.258 15.16H144.178L143.118 12C142.958 11.5 142.778 10.92 142.718 10.56C142.658 10.9 142.498 11.46 142.318 12ZM149.613 25.8V23.22H151.313C152.353 23.22 152.793 22.9 153.193 21.82L153.373 21.34L149.353 11H152.653L154.833 17.42L157.253 11H160.453L155.373 23.18C154.533 25.22 153.413 26.08 151.653 26.08C150.913 26.08 150.213 25.98 149.613 25.8ZM160.674 15.98C160.674 12.82 162.994 10.7 166.194 10.7C169.374 10.7 171.694 12.82 171.694 15.98C171.694 19.14 169.374 21.24 166.194 21.24C162.994 21.24 160.674 19.14 160.674 15.98ZM163.774 15.96C163.774 17.48 164.754 18.48 166.194 18.48C167.614 18.48 168.594 17.48 168.594 15.96C168.594 14.46 167.614 13.46 166.194 13.46C164.754 13.46 163.774 14.46 163.774 15.96ZM172.94 15.98C172.94 12.82 175.26 10.7 178.46 10.7C181.64 10.7 183.96 12.82 183.96 15.98C183.96 19.14 181.64 21.24 178.46 21.24C175.26 21.24 172.94 19.14 172.94 15.98ZM176.04 15.96C176.04 17.48 177.02 18.48 178.46 18.48C179.88 18.48 180.86 17.48 180.86 15.96C180.86 14.46 179.88 13.46 178.46 13.46C177.02 13.46 176.04 14.46 176.04 15.96ZM188.825 21H185.745V5.92H188.825V21ZM194.156 21.26C192.036 21.26 190.716 20.02 190.716 18.06C190.716 16.22 192.016 15.08 194.416 14.9L197.216 14.68V14.52C197.216 13.54 196.616 13.02 195.516 13.02C194.216 13.02 193.516 13.52 193.516 14.42H190.956C190.956 12.16 192.816 10.68 195.676 10.68C198.576 10.68 200.216 12.3 200.216 15.16V21H197.496L197.296 19.68C196.976 20.6 195.656 21.26 194.156 21.26ZM195.236 18.98C196.416 18.98 197.236 18.4 197.236 17.26V16.72L195.676 16.86C194.336 16.98 193.856 17.28 193.856 17.92C193.856 18.64 194.296 18.98 195.236 18.98Z" fill="#D4AF37"/>
</svg>
