<svg width="232" height="27" viewBox="0 0 232 27" fill="none" xmlns="http://www.w3.org/2000/svg">
<path d="M34.0576 5.50709C33.9005 3.06667 31.9688 0.828851 29.5012 0.211839C26.8302 -0.451218 24.1499 0.626251 22.7267 3.02983C20.6564 6.5293 18.6324 10.0564 16.5898 13.5743C15.7396 15.0477 14.8523 16.512 13.2719 17.3132C11.1462 18.3907 9.0482 18.492 7.06113 16.9448C6.96871 16.8712 6.83932 16.8251 6.72841 16.7699C6.6822 16.8251 6.63599 16.8712 6.58978 16.9264C7.60642 18.5196 8.53988 20.1772 9.65819 21.6967C11.9503 24.8278 16.6083 24.7726 19.0667 21.4481C20.7396 19.1919 22.0335 16.6501 23.503 14.2373C24.039 13.3625 24.5474 12.4692 25.1019 11.5391C26.8394 12.285 28.54 12.46 30.2775 11.7601C32.8284 10.7379 34.2517 8.38034 34.0576 5.50709ZM6.08146 0.00923862C2.69882 0.036866 -0.0183906 2.7904 9.37509e-05 6.17015C0.0185781 9.54069 2.76351 12.2205 6.19236 12.1929C9.51955 12.1745 12.246 9.42097 12.2368 6.10568C12.2183 2.74435 9.42713 -0.0183888 6.08146 0.00923862Z" fill="#C5A059"/>
<path d="M6.59912 16.9264C7.61576 18.5196 8.54922 20.1772 9.66753 21.6967C11.9596 24.8278 16.6177 24.7726 19.0761 21.4481C20.7489 19.1918 22.0428 16.6501 23.5031 14.2373C24.0391 13.3532 24.5475 12.4692 25.102 11.539C26.8395 12.285 28.5401 12.46 30.2776 11.7601C32.8285 10.7286 34.2518 8.3711 34.0577 5.49785C33.9006 3.05743 31.9689 0.819615 29.5013 0.202604C26.8303 -0.460454 24.15 0.617015 22.7268 3.0206C20.6565 6.52007 18.6325 10.0472 16.5899 13.5651C15.7397 15.0385 14.8524 16.5028 13.272 17.304C11.1463 18.3814 9.0483 18.4827 7.06123 16.9356C6.96881 16.8619 6.83942 16.8159 6.72851 16.7606L6.59912 16.9264Z" fill="#C5A059"/>
<path d="M64.8894 12.6257C64.5752 18.8143 59.5659 23.7503 53.3459 23.9898C52.2184 24.0358 51.6824 23.9253 51.1555 23.6767C50.065 23.1702 49.2517 22.194 48.9189 21.0429L47.4494 15.9686C48.7618 17.746 50.9245 18.8511 53.3275 18.6945C56.6731 18.4735 59.3719 15.7844 59.5844 12.4415C59.834 8.54607 56.7286 5.30446 52.8746 5.30446H52.8469C51.4328 5.30446 50.1389 6.05961 49.4365 7.27521C48.3644 9.14467 47.2831 11.0141 46.211 12.8836C45.1019 14.8083 43.9836 16.733 42.8653 18.6577C42.6435 19.0445 42.4217 19.4221 42.1906 19.8088C41.6453 20.7482 40.9244 21.6322 40.1204 22.369C37.856 24.4687 34.0945 24.57 32.2553 22.415C30.7857 20.6837 29.6582 18.6577 28.3735 16.7698C32.3477 19.597 36.2017 17.5434 37.9115 14.5873C39.0021 12.7086 40.1388 10.8576 41.1647 8.94207C41.2109 8.85918 41.2572 8.76709 41.2941 8.68421C41.4143 8.2698 41.5529 7.8646 41.7193 7.4686C43.3921 3.36133 47.2923 0.395993 51.9134 0.0368365C52.2276 0.00920913 52.5419 0 52.8654 0C59.7231 0.0184183 65.2407 5.72808 64.8894 12.6257Z" fill="#C5A059"/>
<path d="M6.19236 12.2021C9.51955 12.1837 12.246 9.43018 12.2368 6.11489C12.2183 2.74435 9.42713 -0.0183888 6.08146 0.00923862C2.69881 0.036866 -0.0183906 2.7904 9.37509e-05 6.17015C0.0185781 9.54069 2.76351 12.2205 6.19236 12.2021Z" fill="#C5A059"/>
<path d="M77.6453 21L73.2053 6.2H76.5853L78.5253 12.62C78.7853 13.5 79.0253 14.38 79.2653 15.84C79.5053 14.38 79.7453 13.54 80.0053 12.62L81.8253 6.2H85.4453L87.1853 12.62C87.4253 13.52 87.6653 14.42 87.9253 15.84C88.2253 14.34 88.4453 13.52 88.7053 12.66L90.6853 6.2H93.9853L89.4653 21H86.3053L83.6053 11.28L80.8253 21H77.6453ZM96.8704 21.26C94.7504 21.26 93.4304 20.02 93.4304 18.06C93.4304 16.22 94.7304 15.08 97.1304 14.9L99.9304 14.68V14.52C99.9304 13.54 99.3304 13.02 98.2304 13.02C96.9304 13.02 96.2304 13.52 96.2304 14.42H93.6704C93.6704 12.16 95.5304 10.68 98.3904 10.68C101.29 10.68 102.93 12.3 102.93 15.16V21H100.21L100.01 19.68C99.6904 20.6 98.3704 21.26 96.8704 21.26ZM97.9504 18.98C99.1304 18.98 99.9504 18.4 99.9504 17.26V16.72L98.3904 16.86C97.0504 16.98 96.5704 17.28 96.5704 17.92C96.5704 18.64 97.0104 18.98 97.9504 18.98ZM104.419 17.84H107.339C107.379 18.54 107.899 18.96 108.839 18.96C109.799 18.96 110.239 18.62 110.239 18.1C110.239 17.8 110.079 17.48 109.339 17.32L107.499 16.92C105.659 16.52 104.759 15.72 104.759 13.96C104.759 11.88 106.539 10.68 108.939 10.68C111.259 10.68 112.879 12.04 112.879 14.06H109.959C109.959 13.38 109.539 12.92 108.799 12.92C108.099 12.92 107.659 13.28 107.659 13.82C107.659 14.28 108.039 14.54 108.739 14.7L110.599 15.1C112.239 15.46 113.139 16.22 113.139 17.82C113.139 19.96 111.319 21.26 108.719 21.26C106.079 21.26 104.419 19.86 104.419 17.84ZM116.269 9.44C115.289 9.44 114.509 8.66 114.509 7.68C114.509 6.7 115.289 5.94 116.269 5.94C117.229 5.94 118.009 6.7 118.009 7.68C118.009 8.66 117.229 9.44 116.269 9.44ZM114.749 21V11H117.829V21H114.749ZM126.174 11H129.254V21H126.354L126.154 19.88C125.534 20.7 124.294 21.26 123.094 21.26C120.814 21.26 119.414 19.74 119.414 17.28V11H122.494V16.16C122.494 17.8 123.054 18.52 124.314 18.52C125.634 18.52 126.174 17.84 126.174 16.2V11ZM150.918 13.58C150.918 18.1 147.938 21.24 143.638 21.24C139.358 21.24 136.418 18.12 136.418 13.6C136.418 9.08 139.378 5.94 143.658 5.94C147.958 5.94 150.918 9.06 150.918 13.58ZM147.498 13.58C147.498 10.76 146.058 9.06 143.678 9.06C141.278 9.06 139.838 10.76 139.838 13.58C139.838 16.42 141.278 18.12 143.678 18.12C146.058 18.12 147.498 16.38 147.498 13.58ZM155.876 21H152.796V5.92H155.876V21ZM161.206 21.26C159.086 21.26 157.766 20.02 157.766 18.06C157.766 16.22 159.066 15.08 161.466 14.9L164.266 14.68V14.52C164.266 13.54 163.666 13.02 162.566 13.02C161.266 13.02 160.566 13.52 160.566 14.42H158.006C158.006 12.16 159.866 10.68 162.726 10.68C165.626 10.68 167.266 12.3 167.266 15.16V21H164.546L164.346 19.68C164.026 20.6 162.706 21.26 161.206 21.26ZM162.286 18.98C163.466 18.98 164.286 18.4 164.286 17.26V16.72L162.726 16.86C161.386 16.98 160.906 17.28 160.906 17.92C160.906 18.64 161.346 18.98 162.286 18.98ZM172.555 21H169.475V11H172.375L172.575 12.04C173.195 11.18 174.335 10.68 175.635 10.68C178.015 10.68 179.395 12.2 179.395 14.82V21H176.315V15.56C176.315 14.3 175.615 13.48 174.555 13.48C173.335 13.48 172.555 14.28 172.555 15.52V21ZM183.124 9.44C182.144 9.44 181.364 8.66 181.364 7.68C181.364 6.7 182.144 5.94 183.124 5.94C184.084 5.94 184.864 6.7 184.864 7.68C184.864 8.66 184.084 9.44 183.124 9.44ZM181.604 21V11H184.684V21H181.604ZM186.275 17.84H189.195C189.235 18.54 189.755 18.96 190.695 18.96C191.655 18.96 192.095 18.62 192.095 18.1C192.095 17.8 191.935 17.48 191.195 17.32L189.355 16.92C187.515 16.52 186.615 15.72 186.615 13.96C186.615 11.88 188.395 10.68 190.795 10.68C193.115 10.68 194.735 12.04 194.735 14.06H191.815C191.815 13.38 191.395 12.92 190.655 12.92C189.955 12.92 189.515 13.28 189.515 13.82C189.515 14.28 189.895 14.54 190.595 14.7L192.455 15.1C194.095 15.46 194.995 16.22 194.995 17.82C194.995 19.96 193.175 21.26 190.575 21.26C187.935 21.26 186.275 19.86 186.275 17.84ZM201.244 21.26C198.224 21.26 196.064 19.06 196.064 15.98C196.064 12.86 198.164 10.68 201.184 10.68C204.324 10.68 206.284 12.74 206.284 16V16.78L199.024 16.82C199.204 18.14 199.944 18.76 201.304 18.76C202.464 18.76 203.284 18.34 203.504 17.62H206.324C205.964 19.84 203.984 21.26 201.244 21.26ZM201.204 13.18C199.984 13.18 199.304 13.72 199.064 14.92H203.224C203.224 13.86 202.444 13.18 201.204 13.18ZM211.008 21H208.108V5.92H211.188V12.16C211.788 11.26 213.108 10.66 214.548 10.66C217.348 10.66 219.128 12.84 219.128 16.1C219.128 19.2 217.148 21.26 214.308 21.26C212.908 21.26 211.708 20.64 211.168 19.72L211.008 21ZM211.208 15.94C211.208 17.44 212.208 18.44 213.648 18.44C215.108 18.44 216.028 17.42 216.028 15.94C216.028 14.46 215.108 13.44 213.648 13.44C212.208 13.44 211.208 14.44 211.208 15.94ZM225.541 21.26C222.521 21.26 220.361 19.06 220.361 15.98C220.361 12.86 222.461 10.68 225.481 10.68C228.621 10.68 230.581 12.74 230.581 16V16.78L223.321 16.82C223.501 18.14 224.241 18.76 225.601 18.76C226.761 18.76 227.581 18.34 227.801 17.62H230.621C230.261 19.84 228.281 21.26 225.541 21.26ZM225.501 13.18C224.281 13.18 223.601 13.72 223.361 14.92H227.521C227.521 13.86 226.741 13.18 225.501 13.18Z" fill="#C5A059"/>
</svg>
