<svg width="24" height="24" viewBox="0 0 24 24" fill="none" xmlns="http://www.w3.org/2000/svg">
<path d="M8.57142 5.14286C8.06742 5.14286 7.384 5.13829 6.288 5.13714C6.00803 5.13655 5.73758 5.23875 5.52797 5.42435C5.31836 5.60994 5.18417 5.86602 5.15085 6.144L5.14285 6.28114V18.8491C5.14285 19.1522 5.26326 19.4429 5.47759 19.6573C5.69192 19.8716 5.98261 19.992 6.28571 19.992L17.7143 19.9989C17.9942 19.9991 18.2645 19.8966 18.4739 19.7108C18.6833 19.525 18.8172 19.2688 18.8503 18.9909L18.8571 18.8571V6.28571C18.8571 5.98261 18.7367 5.69192 18.5224 5.47759C18.3081 5.26326 18.0174 5.14286 17.7143 5.14286H15.4286M8.57142 5.14286C8.57142 5.44596 8.69183 5.73665 8.90616 5.95098C9.12049 6.16531 9.41118 6.28571 9.71428 6.28571H14.2857C14.5888 6.28571 14.8795 6.16531 15.0938 5.95098C15.3082 5.73665 15.4286 5.44596 15.4286 5.14286M8.57142 5.14286C8.57142 4.83975 8.69183 4.54906 8.90616 4.33474C9.12049 4.12041 9.41118 4 9.71428 4H14.2857C14.5888 4 14.8795 4.12041 15.0938 4.33474C15.3082 4.54906 15.4286 4.83975 15.4286 5.14286M7.42857 9.71429H13.1429M7.42857 12H15.4286M7.42857 14.2857H10.8571M7.42857 16.5714H14.2857" stroke="currentColor" stroke-linecap="round" stroke-linejoin="round"/>
</svg>
