<svg width="24" height="24" viewBox="0 0 24 24" fill="none" xmlns="http://www.w3.org/2000/svg">
<path d="M10.1994 2.89999H13.8C14.0689 2.89985 14.3314 2.98314 14.551 3.13828C14.7705 3.29341 14.9369 3.51281 15.0266 3.7662L15.1447 4.10019H17.3996C17.7444 4.10019 18.0757 4.23725 18.3195 4.48105C18.5631 4.72482 18.7004 5.05535 18.7004 5.39999V19.8004C18.7003 20.145 18.5632 20.4756 18.3195 20.7193C18.0757 20.9631 17.7444 21.1002 17.3996 21.1002H6.59981C6.25514 21.1001 5.9246 20.963 5.68086 20.7193C5.43716 20.4756 5.30011 20.145 5.3 19.8004V5.39999L5.30684 5.27109C5.33647 4.9737 5.46771 4.69425 5.68086 4.48105C5.92461 4.2373 6.2551 4.10024 6.59981 4.10019H8.85567L8.97383 3.7662C9.0635 3.51294 9.22905 3.29338 9.44844 3.13828C9.66799 2.98312 9.93058 2.89992 10.1994 2.89999ZM6.59981 4.30038C6.30814 4.30044 6.02871 4.41641 5.82246 4.62265C5.61624 4.82893 5.5002 5.1083 5.5002 5.39999V19.8004C5.5003 20.092 5.61627 20.3715 5.82246 20.5777C6.0287 20.7839 6.30819 20.8999 6.59981 20.9H17.3996C17.6913 20.9 17.9716 20.784 18.1779 20.5777C18.3841 20.3715 18.5001 20.0919 18.5002 19.8004V5.39999C18.5002 5.10839 18.384 4.82891 18.1779 4.62265C17.9716 4.41636 17.6914 4.30038 17.3996 4.30038H15.1447L15.0266 4.63339C14.9369 4.88693 14.7706 5.10612 14.551 5.26132C14.3313 5.41654 14.0689 5.49974 13.8 5.4996H10.1994C9.93058 5.49968 9.66799 5.41648 9.44844 5.26132C9.22905 5.10616 9.06345 4.88673 8.97383 4.63339L8.85567 4.30038H6.59981ZM15.0002 11.2994C15.0269 11.2995 15.0526 11.3099 15.0715 11.3287C15.0903 11.3476 15.1008 11.3733 15.1008 11.4C15.1008 11.4267 15.0903 11.4524 15.0715 11.4713L10.8713 15.6715H10.8703C10.8611 15.6807 10.8502 15.6879 10.8381 15.693C10.826 15.698 10.8131 15.7008 10.8 15.7008C10.7869 15.7008 10.7741 15.698 10.7619 15.693C10.7498 15.6879 10.7389 15.6807 10.7297 15.6715H10.7287L8.92891 13.8717C8.91955 13.8623 8.91151 13.8507 8.90645 13.8385C8.9015 13.8264 8.89966 13.8134 8.89961 13.8004C8.89961 13.7872 8.9014 13.7735 8.90645 13.7613C8.91149 13.7491 8.9196 13.7384 8.92891 13.7291C8.93822 13.7198 8.94898 13.7117 8.96114 13.7066C8.97336 13.7016 8.98696 13.6988 9.0002 13.6988C9.01325 13.6988 9.02622 13.7017 9.03828 13.7066C9.05051 13.7117 9.06213 13.7197 9.07149 13.7291V13.7281L10.4465 15.1051L10.8 15.4586L11.1535 15.1051L14.9289 11.3287C14.9478 11.3099 14.9735 11.2994 15.0002 11.2994ZM10.2004 3.10019C9.90866 3.10019 9.62836 3.21616 9.42207 3.42245C9.21595 3.62868 9.09986 3.90822 9.09981 4.1998C9.09981 4.49154 9.21578 4.77183 9.42207 4.97812C9.62835 5.18435 9.9087 5.30038 10.2004 5.30038H13.8C14.0916 5.30038 14.3711 5.18416 14.5773 4.97812C14.7836 4.77183 14.8996 4.49154 14.8996 4.1998C14.8996 3.90813 14.7836 3.6287 14.5773 3.42245C14.3711 3.21623 14.0917 3.10019 13.8 3.10019H10.2004Z" stroke="#2C2C2E"/>
</svg>
